<?xml version="1.0" encoding="utf-8"?>
<!-- Generator: Adobe Illustrator 19.2.0, SVG Export Plug-In . SVG Version: 6.00 Build 0)  -->
<svg version="1.1" id="Layer_1" xmlns="http://www.w3.org/2000/svg" xmlns:xlink="http://www.w3.org/1999/xlink" x="0px" y="0px"
	 viewBox="0 0 192.4 135" style="enable-background:new 0 0 192.4 135;" xml:space="preserve">
<style type="text/css">
	.st0{fill:#4C4F53;}
	.st1{fill:#E6E1DA;}
	.st2{fill:#5F6C73;}
	.st3{fill:#BA9D85;}
</style>
<g>
	<g>
		<path class="st0" d="M86.8,70c0,0-6.5,4-6.4,7c0.1,3,0.1,4.2,5.4,4.2c5.4,0,10.4-1.5,16.8-0.4c4.7,0.8,11.3-0.1,13.1-4.2
			s-2-9.4-4.5-12.2s-5.4-5.1-9.2-3.7C98.2,62.1,89.3,68.3,86.8,70z"/>
		<path class="st0" d="M66.2,57.5c0,0-0.4,4.2-0.3,6.8c0.1,2.6-2.1,3.7-3.9-1.3s-5.2-7.9-5.8-10.5c-0.6-2.6,2-1.7,5-0.8
			C64.2,52.6,66.2,54.3,66.2,57.5z"/>
		<path class="st0" d="M75.2,46.3c0.9,2.9,0.7,8.3,6,5.4c5.3-2.8,5.8-4.1,7.1-7c1.3-2.9,3.6-4.4,3.3-5.5c-0.3-1.1-2.6-1.7-5.5-2.5
			c-2.8-0.8-4.5-2.4-8.7,0.2C73.2,39.4,74.5,44.2,75.2,46.3z"/>
		<path class="st1" d="M55.1,36.7C55,40.4,55,43,57.5,45.2c2.5,2.2,4.6-2.7,9.5-6.8c4.9-4.1,4.1-7.8,2.3-9.9s-4.6-3.7-7.4-2.9
			C59.1,26.4,55.2,32.9,55.1,36.7z"/>
		<path class="st2" d="M79,57.4c0,0-5.1-1.6-7.6-0.1s-2.2,3.8-2.6,7.7c-0.5,3.9,0.5,7,3.1,8.7c2.6,1.7,4.9-0.7,9.8-3.4
			s7.2-3.9,3.9-7.7C81.8,58.2,79,57.4,79,57.4z"/>
		<path class="st2" d="M79.9,22.9c0,0-1.7,13.1-4.8,9.5c-3.7-4.4-4.5-7-10-9.7c-4.1-2-5.8-4-0.1-5.7s11.8-3.8,14.2-1.4
			C80.6,17.1,79.9,22.9,79.9,22.9z"/>
		<path class="st2" d="M106.5,45.8c0,0-4.2,8-1.3,10.5c2,1.8,2.6,2.2,5.5,4.2s5.6,4.5,6.6-2.1c1-6.6-2.3-13.2-4.2-14.8
			C111.1,42.1,107.4,43.3,106.5,45.8z"/>
		<path class="st3" d="M123.4,67.4c-0.1-0.2-3.5-2.7-5-2.8c-1.5-0.1-1.8,1-0.9,3.7c0.9,2.6,0,6.2,1.1,7.5c1.1,1.3,5.3-2.7,7.1-4
			C127.6,70.3,123.4,67.4,123.4,67.4z"/>
		<path class="st2" d="M99.1,31.1c0,0-3-0.4-3.7,1.2c-0.4,0.9-1.2,2.8,1,4.5s6.1,2.8,7.2,1.6c1.1-1.1-0.6-5.1-1.6-6
			S99.1,31.1,99.1,31.1z"/>
		<path class="st3" d="M102.3,23.5c1.1,2.4,1.8,5.6,1.2,6.7c-0.7,1.1-4-0.7-5.6-1.5c-1.6-0.9-4-1.9-4.1-4.2s1-5,3-6.8
			C99.6,15.2,101.2,21,102.3,23.5z"/>
		<path class="st1" d="M128.5,55.7c0,0-2.5,0.1-4.7-0.5c-2.2-0.5-3.8,1.2-3.5,3.4s3.1,5.2,5,7.5s5.4,1.6,6.9-2.8
			C133.6,59,131.5,55.6,128.5,55.7z"/>
		<path class="st0" d="M136.2,44.8c0,0-1.8,4.9-4,6.9c-2,1.8-3.9,4.5-8.6-0.9c-4.7-5.5-9.4-6.2-8.6-8.9c0.8-2.7,3.2-2.6,6.6-3.5
			c3.4-0.8,11.5-2.7,14.5-1.6C139,37.9,136.2,44.8,136.2,44.8z"/>
		<path class="st1" d="M130.8,19.6c0,0-3.3-1.2-7.4-1.3c-4.1-0.1-6.7,1.2-6.6,3.2c0.1,2,1.1,4.8,1.7,6.9c1.3,4.7,1.1,6.3,4,6.9
			c2.9,0.6,8.7,0.6,10.4-4.1S135.1,21.5,130.8,19.6z"/>
		<path class="st0" d="M111,40c0,0,3.9-1.7,6-3c1.9-1.2-0.6-8-1.7-10.6s-4.3-0.3-6.6,1.1c-2.4,1.4-3.1,4.1-2.9,8.6
			S106.3,42.8,111,40z"/>
		<path class="st3" d="M71.8,52.5c0.9-1.4,0.3-2.7,0-7.4c-0.2-2.7-0.1-6.6-3.2-3.9c-5.1,4.5-8.4,6-7.8,7.7S70.9,53.9,71.8,52.5z"/>
		<path class="st2" d="M100.5,8.9c0,0,2.7,9.6,4,12.3c1.1,2.5,2.6,7.2,8.1,0.5c6.7-8.2,14.8-9.7,5.5-15.8S97.7-0.1,100.5,8.9z"/>
		<path class="st3" d="M80.5,3.3c0,0-3.3,0.5-6.8,3c-3.5,2.5-3.2,4.9,3.1,6.3s9.7,2.6,9.5-1.9C86.2,6.3,84.7,2,80.5,3.3z"/>
		<path class="st0" d="M95.8,0.1c0,0-4.5-0.8-6.8,2c-1.3,1.6-1,7.3,0,8.7c1,1.4,4.2,1.6,6.1,1.2c4.7-1.1,1.9-2.8,2.3-6.8
			C97.7,1.8,99.1,0.4,95.8,0.1z"/>
		<path class="st1" d="M101.1,51.1c0,0,1.9,4.5-1.7,7.4c-2.7,2.2-6.8,5.6-10.3,3.3c-3.5-2.3-7.4-4.8-6.2-6.5
			c2.1-2.9,7.9-5.7,11.3-5.8S100,49.1,101.1,51.1z"/>
		<path class="st0" d="M84.7,27.9c0,0-3.8,3.3-3.2,4.6c0.6,1.3,5.2,1.2,7.4,1.6c2.3,0.4,4.2,0.5,5-2.2c0.8-2.7-1.6-6.6-4.3-6.2
			C86.9,26.2,85.8,27.1,84.7,27.9z"/>
		<path class="st3" d="M93.5,47.2c0,0,7.4,1.3,9.7-1s-1.3-3.9-3.4-5.6s-3.8-1.9-5.9,0.6C91.8,43.6,88.9,46.8,93.5,47.2z"/>
		<path class="st1" d="M83.1,19c0,0-3.9,10.9,3.8,5s9.6-7.8,9-9.3s-5-1-6.8-1S83.9,15,83.1,19z"/>
	</g>
	<g>
		<g>
			<path class="st0" d="M20.5,108.1v7.6h-20v-0.6c1.5,0,2.5-1.6,2.5-3.9V94.7c0-2.1-1.3-3.1-2.8-3.1V91h11.2v0.6
				c-1.5,0-3.3,0.6-3.3,3.1v20.5h1.3c0,0,9.3,0,10.5-7H20.5z"/>
			<path class="st0" d="M77.1,115.2v0.6h-7.2v-0.6c1.3-0.4,1.4-1.9,1.4-3.7v-7.8c0-1.2-0.4-1.7-1.8-2.5v-0.6l6.2-1.4v12.3
				C75.6,113.5,75.8,114.8,77.1,115.2z M73.1,96.4c-1.3,0-2.4-1.1-2.4-2.4c0-1.3,1.1-2.4,2.4-2.4c1.3,0,2.4,1.1,2.4,2.4
				C75.5,95.3,74.4,96.4,73.1,96.4z"/>
			<path class="st0" d="M96.6,115.2v0.6h-7.3v-0.6c1.3-0.4,1.4-1.9,1.4-3.7v-6.8c0-1.7-1.1-2.9-2.9-2.9c-1.4,0-3,1.5-3,2.9v6.9
				c0,1.9,0.2,3.3,1.4,3.6v0.6h-7.2v-0.6c1.3-0.4,1.4-1.8,1.4-3.6v-8c0-1.2-0.3-1.6-1.8-2.4v-0.6l6.2-1.4v3.8
				c0.8-2.1,3.6-3.8,5.8-3.8c2.7,0,4.4,1.1,4.4,5.4v6.9C95.2,113.4,95.4,114.9,96.6,115.2z"/>
			<path class="st0" d="M113.4,107.3h-11.2c0.3,3.5,2,5.3,4.4,5.8c1.9,0.4,4.7-0.3,5.6-1.9l0.6,0.3c-0.6,1.8-2.6,4.6-7.4,4.6
				c-4.6,0-7.8-4.3-7.8-8.4c0-5,3.4-8.5,8.2-8.5C111,99.2,113.4,101.8,113.4,107.3z M109.1,106.7c0-4.4-1.4-6.9-3.4-6.9
				c-2.1,0-3.5,3.6-3.5,6.9H109.1z"/>
			<path class="st0" d="M127,114.2c0,0-1.3,1.9-4.9,1.9c-4.3,0-6.4-1.6-6.4-1.6V110h0.6c0.5,1.4,1.7,5.5,5.8,5.5
				c2.5,0,2.9-3.2,0.2-4.9l-3.6-2.1c-3.4-2.1-4.3-4.9-2.4-7.5c0,0,1.3-1.8,4.9-1.8c4.1,0,5.8,1.1,5.8,1.1v3.9h-0.6
				c-0.5-1.2-1.6-4.4-5.2-4.4c-2.3,0-3.3,2.7-0.2,4.7l3.6,2.2C127.7,108.6,128.8,111.7,127,114.2z"/>
			<path class="st0" d="M144.4,111.6c-0.5,1.8-2.6,4.5-7,4.5c-4.6,0-7.8-4.4-7.8-8.5c0-4.1,3.1-8.4,9.1-8.4c2.5,0,4,1,4.6,1.6
				c0.6,0.5,1,1.5,0.7,2.4c-0.4,1.2-1.6,2-2.9,1.7c-1.3-0.3-2-1.6-1.7-2.9c0.1-0.7,0.6-1.1,1.1-1.4c0.3-0.1-0.5-0.7-1.9-0.7
				c-1.3,0-4.7,1.1-4.7,7.2c0,3.8,2,5.5,4.5,6c1.8,0.4,4.5-0.6,5.4-1.7L144.4,111.6z"/>
			<path class="st0" d="M161.7,107.3h-11.2c0.3,3.5,2,5.3,4.4,5.8c1.9,0.4,4.7-0.3,5.6-1.9l0.6,0.3c-0.6,1.8-2.6,4.6-7.4,4.6
				c-4.6,0-7.8-4.3-7.8-8.4c0-5,3.4-8.5,8.2-8.5C159.3,99.2,161.7,101.8,161.7,107.3z M157.4,106.7c0-4.4-1.4-6.9-3.4-6.9
				c-2.1,0-3.5,3.6-3.5,6.9H157.4z"/>
			<path class="st0" d="M180.4,115.2v0.6h-7.3v-0.6c1.3-0.4,1.4-1.9,1.4-3.7v-6.8c0-1.7-1.1-2.9-2.9-2.9c-1.4,0-3,1.5-3,2.9v6.9
				c0,1.9,0.2,3.3,1.4,3.6v0.6h-7.2v-0.6c1.3-0.4,1.4-1.8,1.4-3.6v-8c0-1.2-0.3-1.6-1.8-2.4v-0.6l6.2-1.4v3.8
				c0.8-2.1,3.6-3.8,5.8-3.8c2.7,0,4.4,1.1,4.4,5.4v6.9C179,113.4,179.1,114.9,180.4,115.2z"/>
			<path class="st0" d="M191.8,112.4l0.5,0.3c-0.7,1.7-2.9,3.4-5.2,3.4c-2.8,0-4.4-1.1-4.4-5.4v-10.6h-1.8l-0.1-0.6h1.9v-4.7
				l4.4-0.7v5.5h4.2l-0.1,0.6h-4.1v10.5c0,2,0.8,3,2.6,3C190.7,113.6,191.5,112.9,191.8,112.4z"/>
			<g>
				<path class="st0" d="M47,99.2l-6.2,1.4v0.6c1.4,0.8,1.8,1.4,1.8,2.6v0.4c1.8-1.3,3.4-2.6,4.4-3.4V99.2z"/>
				<path class="st0" d="M38.1,99.2L32,99.9v0.6c1.8,0.2,1.7,0.7,1.7,2.8v7.6c1.1-0.8,2.7-2,4.4-3.3V99.2z"/>
				<path class="st0" d="M66.5,111.5v-6.9c0-4.3-1.7-5.4-4.4-5.4c-2.2,0-4.6,1.6-5.4,3.7c-0.4-2.6-1.9-3.7-4.4-3.7
					c-1.2,0-2.4,0.5-3.4,1.2l0,0c0,0,0,0,0,0c-0.2,0.1-0.3,0.3-0.5,0.4c-0.3,0.3-0.8,0.6-1.4,1.1c-2.1,1.7-9.9,7.5-13.4,10.1v0
					c-0.4,0.3-0.7,0.5-0.7,0.5c-0.8,0.6-1.8,1-2.3,1c-2,0-3-1-3-2.9V99.2l-6.3,0.7v0.6c2,0.3,2,0.6,2,2.7v7.5c0,4.2,1.7,5.5,4.4,5.4
					c2,0,3.7-1.2,5.2-2.3c0.1,0,0.3-0.2,0.7-0.5v2.2c0,0,0,0.8,1,0.7l5.2-0.9v-0.6c-1.5-0.2-1.8-0.3-1.8-2v-2.6
					c1.4-1.1,3-2.3,4.5-3.4v5c0,1.8,0,3.2-1.4,3.6v0.6h7.2v-0.6c-1.2-0.4-1.4-1.7-1.4-3.6v-6.9c0-1.3,1.5-2.9,2.8-2.9
					c1.6,0,2.5,1,2.5,2.9v6.8c0,1.8-0.1,3.3-1.4,3.7v0.6h7.3v-0.6c-1.3-0.3-1.4-1.8-1.4-3.7v-6.8c0-1.4,1.5-3,2.8-3
					c1.6,0,2.6,1,2.6,2.9v6.8c0,1.8-0.1,3.3-1.4,3.7v0.6h7.3v-0.6C66.7,114.9,66.5,113.4,66.5,111.5z"/>
			</g>
		</g>
		<g>
			<path class="st0" d="M32.8,134.9v-9.1h3.8c0.4,0,0.8,0.1,1.1,0.2c0.3,0.2,0.6,0.4,0.9,0.7c0.2,0.3,0.4,0.6,0.6,0.9
				s0.2,0.7,0.2,1.1c0,0.4-0.1,0.7-0.2,1.1c-0.1,0.3-0.3,0.7-0.5,0.9c-0.2,0.3-0.5,0.5-0.8,0.7c-0.3,0.2-0.7,0.2-1.1,0.2h-2.7v3.3
				H32.8z M33.9,130.6h2.6c0.2,0,0.5,0,0.6-0.1c0.2-0.1,0.4-0.2,0.5-0.4c0.1-0.2,0.2-0.4,0.3-0.6c0.1-0.2,0.1-0.5,0.1-0.7
				c0-0.3,0-0.5-0.1-0.7c-0.1-0.2-0.2-0.4-0.4-0.6c-0.1-0.2-0.3-0.3-0.5-0.4c-0.2-0.1-0.4-0.1-0.6-0.1h-2.6V130.6z"/>
			<path class="st0" d="M46.7,127.7c-0.1-0.1-0.2-0.2-0.4-0.3c-0.2-0.1-0.4-0.2-0.6-0.3c-0.2-0.1-0.4-0.2-0.7-0.2
				c-0.3-0.1-0.5-0.1-0.8-0.1c-0.7,0-1.2,0.1-1.5,0.4s-0.5,0.6-0.5,1.1c0,0.2,0,0.5,0.1,0.6c0.1,0.2,0.2,0.3,0.4,0.4
				c0.2,0.1,0.4,0.2,0.7,0.3c0.3,0.1,0.7,0.2,1.1,0.3c0.5,0.1,0.9,0.2,1.3,0.4c0.4,0.1,0.7,0.3,1,0.5c0.3,0.2,0.5,0.4,0.6,0.7
				c0.1,0.3,0.2,0.6,0.2,1c0,0.4-0.1,0.8-0.3,1.1c-0.2,0.3-0.4,0.6-0.7,0.8s-0.6,0.4-1,0.5c-0.4,0.1-0.8,0.1-1.3,0.1
				c-0.7,0-1.4-0.1-2-0.3c-0.6-0.2-1.2-0.5-1.7-1l0.5-1c0.1,0.1,0.3,0.3,0.5,0.4c0.2,0.1,0.5,0.3,0.7,0.4c0.3,0.1,0.6,0.2,0.9,0.3
				c0.3,0.1,0.7,0.1,1,0.1c0.6,0,1.1-0.1,1.5-0.3c0.4-0.2,0.5-0.6,0.5-1c0-0.3-0.1-0.5-0.2-0.6c-0.1-0.2-0.3-0.3-0.5-0.5
				c-0.2-0.1-0.5-0.2-0.8-0.3c-0.3-0.1-0.7-0.2-1.1-0.3c-0.5-0.1-0.9-0.2-1.2-0.4c-0.3-0.1-0.6-0.3-0.9-0.5
				c-0.2-0.2-0.4-0.4-0.5-0.7c-0.1-0.3-0.2-0.6-0.2-0.9c0-0.4,0.1-0.8,0.2-1.1c0.2-0.3,0.4-0.6,0.7-0.8c0.3-0.2,0.6-0.4,1-0.5
				c0.4-0.1,0.8-0.2,1.3-0.2c0.6,0,1.2,0.1,1.7,0.3c0.5,0.2,0.9,0.4,1.3,0.8L46.7,127.7z"/>
			<path class="st0" d="M49.9,125.8l2.7,4.7l2.8-4.7h1.3l-3.4,5.8v3.3H52v-3.3l-3.4-5.7H49.9z"/>
			<path class="st0" d="M57.3,130.3c0-0.5,0.1-1.1,0.3-1.6c0.2-0.5,0.5-1,0.8-1.5c0.4-0.4,0.8-0.8,1.4-1c0.5-0.3,1.1-0.4,1.8-0.4
				c0.8,0,1.5,0.2,2.1,0.5c0.6,0.4,1,0.8,1.3,1.4l-0.9,0.6c-0.1-0.3-0.3-0.5-0.5-0.7c-0.2-0.2-0.4-0.4-0.6-0.5
				c-0.2-0.1-0.5-0.2-0.7-0.3c-0.2-0.1-0.5-0.1-0.7-0.1c-0.5,0-0.9,0.1-1.3,0.3c-0.4,0.2-0.7,0.5-1,0.8c-0.3,0.3-0.5,0.7-0.6,1.1
				c-0.1,0.4-0.2,0.8-0.2,1.3c0,0.5,0.1,0.9,0.2,1.4c0.2,0.4,0.4,0.8,0.7,1.1c0.3,0.3,0.6,0.6,1,0.8c0.4,0.2,0.8,0.3,1.3,0.3
				c0.2,0,0.5,0,0.7-0.1c0.3-0.1,0.5-0.2,0.7-0.3c0.2-0.1,0.4-0.3,0.6-0.5c0.2-0.2,0.4-0.4,0.5-0.7l1,0.5c-0.1,0.3-0.3,0.6-0.6,0.9
				c-0.3,0.3-0.6,0.5-0.9,0.7c-0.3,0.2-0.7,0.3-1,0.4c-0.4,0.1-0.7,0.1-1.1,0.1c-0.6,0-1.2-0.1-1.7-0.4c-0.5-0.3-1-0.6-1.3-1.1
				c-0.4-0.4-0.7-0.9-0.9-1.5C57.4,131.5,57.3,130.9,57.3,130.3z"/>
			<path class="st0" d="M74.5,125.8v9.1h-1.1v-4.1h-5v4.1h-1.1v-9.1h1.1v3.9h5v-3.9H74.5z"/>
			<path class="st0" d="M77.3,134.9v-9.1h1.1v9.1H77.3z"/>
			<path class="st0" d="M84,125.8h1l3.7,9.1h-1.2l-1.1-2.7h-3.8l-1.1,2.7h-1.2L84,125.8z M86.1,131.4l-1.6-4.2l-1.7,4.2H86.1z"/>
			<path class="st0" d="M96.2,126.9h-3.1v8h-1.1v-8h-3.1v-1h7.4V126.9z"/>
			<path class="st0" d="M98.1,134.9v-9.1h3.9c0.4,0,0.8,0.1,1.1,0.2c0.3,0.2,0.6,0.4,0.9,0.7c0.2,0.3,0.4,0.6,0.6,0.9
				c0.1,0.3,0.2,0.7,0.2,1.1c0,0.3,0,0.6-0.1,0.9c-0.1,0.3-0.2,0.6-0.4,0.8c-0.2,0.2-0.4,0.4-0.6,0.6c-0.2,0.2-0.5,0.3-0.8,0.4
				l2.2,3.5h-1.3l-2.1-3.3h-2.4v3.3H98.1z M99.2,130.6h2.7c0.2,0,0.5-0.1,0.6-0.2c0.2-0.1,0.4-0.2,0.5-0.4c0.1-0.2,0.2-0.4,0.3-0.6
				c0.1-0.2,0.1-0.5,0.1-0.7c0-0.3,0-0.5-0.1-0.7c-0.1-0.2-0.2-0.4-0.4-0.6c-0.1-0.2-0.3-0.3-0.5-0.4c-0.2-0.1-0.4-0.1-0.6-0.1h-2.7
				V130.6z"/>
			<path class="st0" d="M107.1,134.9v-9.1h1.1v9.1H107.1z"/>
			<path class="st0" d="M110.5,130.3c0-0.5,0.1-1.1,0.3-1.6c0.2-0.5,0.5-1,0.8-1.5c0.4-0.4,0.8-0.8,1.4-1c0.5-0.3,1.1-0.4,1.8-0.4
				c0.8,0,1.5,0.2,2.1,0.5c0.6,0.4,1,0.8,1.3,1.4l-0.9,0.6c-0.1-0.3-0.3-0.5-0.5-0.7c-0.2-0.2-0.4-0.4-0.6-0.5
				c-0.2-0.1-0.5-0.2-0.7-0.3c-0.2-0.1-0.5-0.1-0.7-0.1c-0.5,0-0.9,0.1-1.3,0.3c-0.4,0.2-0.7,0.5-1,0.8c-0.3,0.3-0.5,0.7-0.6,1.1
				c-0.1,0.4-0.2,0.8-0.2,1.3c0,0.5,0.1,0.9,0.2,1.4c0.2,0.4,0.4,0.8,0.7,1.1c0.3,0.3,0.6,0.6,1,0.8c0.4,0.2,0.8,0.3,1.3,0.3
				c0.2,0,0.5,0,0.7-0.1c0.3-0.1,0.5-0.2,0.7-0.3c0.2-0.1,0.4-0.3,0.6-0.5c0.2-0.2,0.4-0.4,0.5-0.7l1,0.5c-0.1,0.3-0.3,0.6-0.6,0.9
				c-0.3,0.3-0.6,0.5-0.9,0.7c-0.3,0.2-0.7,0.3-1,0.4c-0.4,0.1-0.7,0.1-1.1,0.1c-0.6,0-1.2-0.1-1.7-0.4c-0.5-0.3-1-0.6-1.3-1.1
				c-0.4-0.4-0.7-0.9-0.9-1.5C110.6,131.5,110.5,130.9,110.5,130.3z"/>
			<path class="st0" d="M125.5,130.3c0-0.5,0.1-1.1,0.3-1.6c0.2-0.5,0.5-1,0.8-1.5c0.4-0.4,0.8-0.8,1.4-1s1.1-0.4,1.8-0.4
				c0.8,0,1.5,0.2,2.1,0.5c0.6,0.4,1,0.8,1.3,1.4l-0.9,0.6c-0.1-0.3-0.3-0.5-0.5-0.7c-0.2-0.2-0.4-0.4-0.6-0.5
				c-0.2-0.1-0.5-0.2-0.7-0.3c-0.2-0.1-0.5-0.1-0.7-0.1c-0.5,0-0.9,0.1-1.3,0.3c-0.4,0.2-0.7,0.5-1,0.8c-0.3,0.3-0.5,0.7-0.6,1.1
				c-0.1,0.4-0.2,0.8-0.2,1.3c0,0.5,0.1,0.9,0.2,1.4c0.2,0.4,0.4,0.8,0.7,1.1c0.3,0.3,0.6,0.6,1,0.8c0.4,0.2,0.8,0.3,1.3,0.3
				c0.2,0,0.5,0,0.7-0.1c0.3-0.1,0.5-0.2,0.7-0.3c0.2-0.1,0.4-0.3,0.6-0.5c0.2-0.2,0.4-0.4,0.5-0.7l1,0.5c-0.1,0.3-0.3,0.6-0.6,0.9
				c-0.3,0.3-0.6,0.5-0.9,0.7c-0.3,0.2-0.7,0.3-1,0.4c-0.4,0.1-0.7,0.1-1.1,0.1c-0.6,0-1.2-0.1-1.7-0.4c-0.5-0.3-1-0.6-1.3-1.1
				c-0.4-0.4-0.7-0.9-0.9-1.5C125.6,131.5,125.5,130.9,125.5,130.3z"/>
			<path class="st0" d="M138.1,125.8h1l3.7,9.1h-1.2l-1.1-2.7h-3.8l-1.1,2.7h-1.2L138.1,125.8z M140.2,131.4l-1.6-4.2l-1.7,4.2
				H140.2z"/>
			<path class="st0" d="M144.6,134.9v-9.1h3.9c0.4,0,0.8,0.1,1.1,0.2c0.3,0.2,0.6,0.4,0.9,0.7c0.2,0.3,0.4,0.6,0.6,0.9
				s0.2,0.7,0.2,1.1c0,0.3,0,0.6-0.1,0.9c-0.1,0.3-0.2,0.6-0.4,0.8c-0.2,0.2-0.4,0.4-0.6,0.6c-0.2,0.2-0.5,0.3-0.8,0.4l2.2,3.5h-1.3
				l-2.1-3.3h-2.4v3.3H144.6z M145.7,130.6h2.7c0.2,0,0.5-0.1,0.6-0.2c0.2-0.1,0.4-0.2,0.5-0.4s0.2-0.4,0.3-0.6
				c0.1-0.2,0.1-0.5,0.1-0.7c0-0.3,0-0.5-0.1-0.7c-0.1-0.2-0.2-0.4-0.4-0.6c-0.1-0.2-0.3-0.3-0.5-0.4c-0.2-0.1-0.4-0.1-0.6-0.1h-2.7
				V130.6z"/>
			<path class="st0" d="M159.7,133.9v1h-6.1v-9.1h6v1h-4.9v2.9h4.2v1h-4.2v3.1H159.7z"/>
		</g>
	</g>
</g>
</svg>
