<?xml version="1.0" encoding="utf-8"?>
<!-- Generator: Adobe Illustrator 19.2.0, SVG Export Plug-In . SVG Version: 6.00 Build 0)  -->
<svg version="1.1" id="Layer_1" xmlns="http://www.w3.org/2000/svg" xmlns:xlink="http://www.w3.org/1999/xlink" x="0px" y="0px"
	 viewBox="0 0 192.4 54.7" style="enable-background:new 0 0 192.4 54.7;" xml:space="preserve">
<style type="text/css">
	.st0{fill:#4C4F53;}
	.st1{fill:#E7E2DB;}
	.st2{fill:#5F6C73;}
	.st3{fill:#BB9E86;}
</style>
<g>
	<g>
		<path class="st0" d="M21.4,47.2c0,0-4.3,2.7-4.3,4.7c0,2,0,2.8,3.7,2.8c3.6,0,7-1,11.3-0.2c3.2,0.6,7.6-0.1,8.8-2.8
			c1.2-2.7-1.3-6.3-3.1-8.2c-1.7-1.9-3.6-3.4-6.2-2.5C29,41.9,23.1,46,21.4,47.2z"/>
		<path class="st0" d="M7.6,38.8c0,0-0.3,2.8-0.2,4.6c0.1,1.7-1.4,2.5-2.6-0.9s-3.5-5.3-3.9-7.1c-0.4-1.8,1.3-1.1,3.4-0.5
			C6.2,35.5,7.6,36.6,7.6,38.8z"/>
		<path class="st0" d="M13.6,31.2c0.6,2,0.5,5.6,4,3.7s3.9-2.8,4.7-4.7c0.8-1.9,2.4-3,2.2-3.7s-1.7-1.2-3.7-1.7
			c-1.9-0.5-3-1.6-5.8,0.1C12.3,26.6,13.2,29.9,13.6,31.2z"/>
		<path class="st1" d="M0.1,24.8C0,27.3,0,29,1.7,30.5c1.7,1.5,3.1-1.8,6.4-4.6s2.8-5.2,1.6-6.7c-1.2-1.5-3.1-2.5-5-1.9
			C2.8,17.9,0.2,22.3,0.1,24.8z"/>
		<path class="st2" d="M16.2,38.7c0,0-3.4-1.1-5.1-0.1s-1.5,2.6-1.8,5.2c-0.3,2.6,0.3,4.7,2.1,5.9c1.8,1.1,3.3-0.5,6.6-2.3
			s4.9-2.6,2.6-5.2C18,39.3,16.2,38.7,16.2,38.7z"/>
		<path class="st2" d="M16.8,15.5c0,0-1.2,8.8-3.2,6.4c-2.5-3-3-4.7-6.7-6.5c-2.8-1.4-3.9-2.7-0.1-3.8s7.9-2.6,9.5-0.9
			C17.3,11.6,16.8,15.5,16.8,15.5z"/>
		<path class="st2" d="M34.7,30.9c0,0-2.8,5.4-0.9,7.1c1.4,1.2,1.8,1.5,3.7,2.9c1.9,1.4,3.8,3,4.5-1.4s-1.5-8.9-2.8-9.9
			C37.8,28.4,35.3,29.2,34.7,30.9z"/>
		<path class="st3" d="M46,45.4c-0.1-0.1-2.3-1.8-3.4-1.9c-1-0.1-1.2,0.7-0.6,2.5s0,4.2,0.8,5.1s3.6-1.8,4.7-2.7
			C48.8,47.4,46,45.4,46,45.4z"/>
		<path class="st2" d="M29.7,21c0,0-2-0.3-2.5,0.8c-0.3,0.6-0.8,1.9,0.7,3c1.5,1.2,4.1,1.9,4.9,1.1c0.8-0.8-0.4-3.4-1.1-4.1
			S29.7,21,29.7,21z"/>
		<path class="st3" d="M31.9,15.9c0.8,1.6,1.2,3.8,0.8,4.5c-0.5,0.8-2.7-0.4-3.8-1s-2.7-1.3-2.7-2.8c-0.1-1.5,0.7-3.4,2-4.6
			C30,10.3,31.1,14.3,31.9,15.9z"/>
		<path class="st1" d="M49.4,37.6c0,0-1.7,0-3.1-0.3c-1.5-0.4-2.6,0.8-2.4,2.3c0.2,1.5,2.1,3.5,3.4,5s3.6,1,4.6-1.9
			C52.8,39.8,51.4,37.5,49.4,37.6z"/>
		<path class="st0" d="M54.6,30.3c0,0-1.2,3.3-2.7,4.6c-1.3,1.2-2.6,3-5.8-0.6c-3.2-3.7-6.3-4.2-5.8-6c0.6-1.8,2.1-1.8,4.4-2.3
			c2.3-0.6,7.8-1.8,9.7-1.1C56.5,25.6,54.6,30.3,54.6,30.3z"/>
		<path class="st1" d="M51,13.3c0,0-2.2-0.8-5-0.9c-2.8-0.1-4.5,0.8-4.4,2.2s0.7,3.2,1.1,4.6c0.9,3.1,0.8,4.2,2.7,4.6
			c1.9,0.4,5.9,0.4,7-2.7S53.9,14.5,51,13.3z"/>
		<path class="st0" d="M37.7,27c0,0,2.7-1.2,4-2c1.3-0.8-0.4-5.4-1.2-7.1s-2.9-0.2-4.5,0.7c-1.6,0.9-2.1,2.8-1.9,5.8
			S34.5,28.9,37.7,27z"/>
		<path class="st3" d="M11.3,35.4c0.6-0.9,0.2-1.8,0-4.9c-0.1-1.8-0.1-4.4-2.2-2.6c-3.4,3-5.6,4-5.2,5.2
			C4.4,34.1,10.7,36.3,11.3,35.4z"/>
		<path class="st2" d="M30.6,6.1c0,0,1.8,6.5,2.7,8.3c0.8,1.7,1.8,4.8,5.4,0.3c4.5-5.5,10-6.5,3.7-10.6S28.7,0.1,30.6,6.1z"/>
		<path class="st3" d="M17.2,2.3c0,0-2.2,0.3-4.6,2s-2.1,3.3,2.1,4.3c4.2,1,6.5,1.7,6.4-1.3S20,1.5,17.2,2.3z"/>
		<path class="st0" d="M27.5,0.2c0,0-3-0.5-4.6,1.3c-0.9,1.1-0.7,4.9,0,5.9c0.7,1,2.8,1.1,4.1,0.8c3.1-0.7,1.3-1.9,1.5-4.6
			C28.7,1.3,29.7,0.4,27.5,0.2z"/>
		<path class="st1" d="M31,34.4c0,0,1.3,3-1.2,4.9c-1.8,1.5-4.6,3.7-6.9,2.2s-5-3.3-4.2-4.4c1.4-2,5.3-3.9,7.6-3.9
			C28.7,33.2,30.3,33.1,31,34.4z"/>
		<path class="st0" d="M20,18.9c0,0-2.5,2.2-2.1,3.1c0.4,0.9,3.5,0.8,5,1.1s2.8,0.3,3.4-1.5c0.5-1.8-1.1-4.4-2.9-4.2
			C21.5,17.7,20.8,18.3,20,18.9z"/>
		<path class="st3" d="M25.9,31.9c0,0,5,0.9,6.5-0.7c1.5-1.6-0.9-2.6-2.3-3.7c-1.4-1.1-2.5-1.3-3.9,0.4
			C24.8,29.5,22.8,31.5,25.9,31.9z"/>
		<path class="st1" d="M18.9,12.9c0,0-2.6,7.4,2.5,3.4s6.4-5.2,6.1-6.2S24.2,9.4,23,9.4C21.8,9.4,19.5,10.2,18.9,12.9z"/>
	</g>
	<g>
		<g>
			<path class="st0" d="M76.7,24.1v5.1H63.2v-0.4c1,0,1.7-1,1.7-2.7V15.1c0-1.4-0.9-2.1-1.9-2.1v-0.4h7.5V13c-1,0-2.2,0.4-2.2,2.1
				v13.8h0.9c0,0,6.3,0,7.1-4.7H76.7z"/>
			<path class="st0" d="M114.8,28.9v0.4h-4.9v-0.4c0.9-0.3,0.9-1.3,0.9-2.5v-5.3c0-0.8-0.2-1.1-1.2-1.7v-0.4l4.1-0.9v8.3
				C113.8,27.7,113.9,28.6,114.8,28.9z M112.1,16.2c-0.9,0-1.6-0.7-1.6-1.6s0.7-1.6,1.6-1.6c0.9,0,1.6,0.7,1.6,1.6
				S113,16.2,112.1,16.2z"/>
			<path class="st0" d="M127.9,28.9v0.4H123v-0.4c0.9-0.3,0.9-1.3,0.9-2.5v-4.6c0-1.1-0.7-2-1.9-2c-0.9,0-2,1-2,1.9v4.7
				c0,1.3,0.1,2.2,1,2.4v0.4h-4.9v-0.4c0.9-0.3,0.9-1.2,0.9-2.4v-5.4c0-0.8-0.2-1.1-1.2-1.6v-0.4l4.1-0.9v2.5
				c0.5-1.4,2.4-2.5,3.9-2.5c1.8,0,3,0.7,3,3.6v4.7C126.9,27.7,127,28.7,127.9,28.9z"/>
			<path class="st0" d="M139.2,23.6h-7.5c0.2,2.3,1.4,3.5,3,3.9c1.3,0.3,3.2-0.2,3.8-1.3l0.4,0.2c-0.4,1.2-1.8,3.1-5,3.1
				c-3.1,0-5.2-2.9-5.2-5.6c0-3.3,2.3-5.7,5.5-5.7C137.6,18.1,139.2,19.9,139.2,23.6z M136.3,23.2c0-3-1-4.7-2.3-4.7
				c-1.4,0-2.4,2.4-2.4,4.7H136.3z"/>
			<path class="st0" d="M148.3,28.2c0,0-0.9,1.3-3.3,1.3c-2.9,0-4.3-1.1-4.3-1.1v-3h0.4c0.4,0.9,1.1,3.7,3.9,3.7
				c1.7,0,2-2.1,0.2-3.3l-2.4-1.4c-2.3-1.4-2.9-3.3-1.6-5c0,0,0.9-1.2,3.3-1.2c2.7,0,3.9,0.7,3.9,0.7v2.7h-0.4c-0.3-0.8-1.1-3-3.5-3
				c-1.5,0-2.2,1.8-0.1,3.1l2.4,1.5C148.8,24.4,149.5,26.5,148.3,28.2z"/>
			<path class="st0" d="M160,26.4c-0.3,1.2-1.8,3.1-4.7,3.1c-3.1,0-5.2-3-5.2-5.7c0-2.7,2.1-5.6,6.1-5.6c1.7,0,2.7,0.7,3.1,1
				c0.4,0.4,0.6,1,0.5,1.6c-0.2,0.8-1.1,1.4-1.9,1.1c-0.9-0.2-1.4-1.1-1.1-1.9c0.1-0.5,0.4-0.8,0.7-0.9c0.2-0.1-0.3-0.5-1.3-0.5
				c-0.9,0-3.2,0.7-3.2,4.8c0,2.6,1.4,3.7,3,4.1c1.2,0.3,3.1-0.4,3.6-1.2L160,26.4z"/>
			<path class="st0" d="M171.7,23.6h-7.5c0.2,2.3,1.4,3.5,3,3.9c1.3,0.3,3.2-0.2,3.8-1.3l0.4,0.2c-0.4,1.2-1.8,3.1-5,3.1
				c-3.1,0-5.2-2.9-5.2-5.6c0-3.3,2.3-5.7,5.5-5.7C170.1,18.1,171.7,19.9,171.7,23.6z M168.8,23.2c0-3-1-4.7-2.3-4.7
				c-1.4,0-2.4,2.4-2.4,4.7H168.8z"/>
			<path class="st0" d="M184.2,28.9v0.4h-4.9v-0.4c0.9-0.3,0.9-1.3,0.9-2.5v-4.6c0-1.1-0.7-2-1.9-2c-0.9,0-2,1-2,1.9v4.7
				c0,1.3,0.1,2.2,1,2.4v0.4h-4.9v-0.4c0.9-0.3,0.9-1.2,0.9-2.4v-5.4c0-0.8-0.2-1.1-1.2-1.6v-0.4l4.1-0.9v2.5
				c0.5-1.4,2.4-2.5,3.9-2.5c1.8,0,3,0.7,3,3.6v4.7C183.3,27.7,183.4,28.7,184.2,28.9z"/>
			<path class="st0" d="M191.9,27l0.4,0.2c-0.5,1.1-1.9,2.3-3.5,2.3c-1.9,0-3-0.8-3-3.6v-7.1h-1.2l-0.1-0.4h1.3v-3.2l3-0.5v3.7h2.8
				l-0.1,0.4h-2.7v7.1c0,1.3,0.6,2,1.8,2C191.2,27.8,191.7,27.3,191.9,27z"/>
			<g>
				<path class="st0" d="M94.5,18.1l-4.1,0.9v0.4c1,0.5,1.2,0.9,1.2,1.8v0.2c1.2-0.9,2.3-1.7,3-2.3V18.1z"/>
				<path class="st0" d="M88.5,18.1l-4.1,0.5V19c1.2,0.1,1.1,0.5,1.1,1.9V26c0.7-0.5,1.8-1.3,3-2.2V18.1z"/>
				<path class="st0" d="M107.6,26.4v-4.7c0-2.9-1.1-3.6-3-3.6c-1.5,0-3.1,1.1-3.6,2.5c-0.3-1.8-1.3-2.5-3-2.5
					c-0.8,0-1.6,0.3-2.3,0.8l0,0c0,0,0,0,0,0c-0.1,0.1-0.2,0.2-0.3,0.3c-0.2,0.2-0.5,0.4-0.9,0.7c-1.4,1.2-6.7,5.1-9,6.8v0
					c-0.3,0.2-0.5,0.3-0.5,0.4c-0.5,0.4-1.2,0.6-1.6,0.6c-1.4,0-2-0.6-2-2v-7.7l-4.3,0.5V19c1.4,0.2,1.3,0.4,1.3,1.8v5.1
					c0,2.8,1.1,3.7,3,3.6c1.4,0,2.5-0.8,3.5-1.6c0,0,0.2-0.2,0.5-0.4V29c0,0,0,0.5,0.7,0.5l3.5-0.6v-0.4c-1-0.1-1.2-0.2-1.2-1.4
					v-1.8c1-0.7,2-1.5,3-2.3v3.4c0,1.2,0,2.2-0.9,2.4v0.4h4.9v-0.4c-0.8-0.2-1-1.1-1-2.4v-4.7c0-0.9,1-1.9,1.9-1.9
					c1.1,0,1.7,0.6,1.7,2v4.6c0,1.2,0,2.2-0.9,2.5v0.4h4.9v-0.4c-0.9-0.2-1-1.2-1-2.5v-4.5c0-0.9,1-2,1.9-2c1.1,0,1.7,0.6,1.7,2v4.6
					c0,1.2,0,2.2-0.9,2.5v0.4h4.9v-0.4C107.8,28.7,107.6,27.7,107.6,26.4z"/>
			</g>
		</g>
		<g>
			<path class="st0" d="M85,42.1V36h2.5c0.3,0,0.5,0.1,0.7,0.2c0.2,0.1,0.4,0.3,0.6,0.4c0.2,0.2,0.3,0.4,0.4,0.6
				c0.1,0.2,0.1,0.5,0.1,0.7c0,0.3,0,0.5-0.1,0.7c-0.1,0.2-0.2,0.4-0.4,0.6s-0.3,0.3-0.6,0.4c-0.2,0.1-0.5,0.2-0.7,0.2h-1.8v2.2H85z
				 M85.8,39.2h1.8c0.2,0,0.3,0,0.4-0.1c0.1-0.1,0.2-0.2,0.3-0.3c0.1-0.1,0.2-0.3,0.2-0.4c0.1-0.2,0.1-0.3,0.1-0.5
				c0-0.2,0-0.3-0.1-0.5c-0.1-0.2-0.1-0.3-0.2-0.4c-0.1-0.1-0.2-0.2-0.4-0.3c-0.1-0.1-0.3-0.1-0.4-0.1h-1.7V39.2z"/>
			<path class="st0" d="M94.3,37.3c-0.1-0.1-0.2-0.2-0.3-0.2c-0.1-0.1-0.2-0.1-0.4-0.2s-0.3-0.1-0.5-0.1c-0.2,0-0.3-0.1-0.5-0.1
				c-0.5,0-0.8,0.1-1,0.3s-0.3,0.4-0.3,0.7c0,0.2,0,0.3,0.1,0.4c0.1,0.1,0.2,0.2,0.3,0.3c0.1,0.1,0.3,0.1,0.5,0.2
				c0.2,0.1,0.4,0.1,0.7,0.2c0.3,0.1,0.6,0.1,0.9,0.2c0.3,0.1,0.5,0.2,0.7,0.3s0.3,0.3,0.4,0.5c0.1,0.2,0.1,0.4,0.1,0.7
				c0,0.3-0.1,0.5-0.2,0.8c-0.1,0.2-0.3,0.4-0.5,0.5c-0.2,0.1-0.4,0.2-0.7,0.3c-0.3,0.1-0.6,0.1-0.9,0.1c-0.5,0-0.9-0.1-1.3-0.2
				c-0.4-0.1-0.8-0.4-1.1-0.6l0.4-0.7c0.1,0.1,0.2,0.2,0.4,0.3c0.1,0.1,0.3,0.2,0.5,0.3c0.2,0.1,0.4,0.1,0.6,0.2
				c0.2,0,0.4,0.1,0.7,0.1c0.4,0,0.8-0.1,1-0.2c0.2-0.2,0.4-0.4,0.4-0.7c0-0.2,0-0.3-0.1-0.4c-0.1-0.1-0.2-0.2-0.3-0.3
				c-0.1-0.1-0.3-0.2-0.6-0.2c-0.2-0.1-0.5-0.1-0.8-0.2c-0.3-0.1-0.6-0.2-0.8-0.2c-0.2-0.1-0.4-0.2-0.6-0.3
				c-0.2-0.1-0.3-0.3-0.4-0.4c-0.1-0.2-0.1-0.4-0.1-0.6c0-0.3,0.1-0.5,0.2-0.8c0.1-0.2,0.3-0.4,0.5-0.6c0.2-0.2,0.4-0.3,0.7-0.3
				c0.3-0.1,0.6-0.1,0.9-0.1c0.4,0,0.8,0.1,1.1,0.2c0.3,0.1,0.6,0.3,0.9,0.5L94.3,37.3z"/>
			<path class="st0" d="M96.5,36l1.8,3.2l1.9-3.2h0.8l-2.3,3.9v2.2h-0.8v-2.2L95.6,36H96.5z"/>
			<path class="st0" d="M101.5,39c0-0.4,0.1-0.7,0.2-1.1c0.1-0.4,0.3-0.7,0.6-1c0.2-0.3,0.6-0.5,0.9-0.7s0.8-0.3,1.2-0.3
				c0.5,0,1,0.1,1.4,0.4c0.4,0.2,0.7,0.6,0.9,1l-0.6,0.4c-0.1-0.2-0.2-0.4-0.3-0.5c-0.1-0.1-0.3-0.2-0.4-0.3
				c-0.2-0.1-0.3-0.1-0.5-0.2c-0.2,0-0.3-0.1-0.5-0.1c-0.3,0-0.6,0.1-0.9,0.2c-0.3,0.1-0.5,0.3-0.7,0.5c-0.2,0.2-0.3,0.5-0.4,0.8
				c-0.1,0.3-0.1,0.6-0.1,0.9c0,0.3,0.1,0.6,0.2,0.9c0.1,0.3,0.3,0.5,0.4,0.8c0.2,0.2,0.4,0.4,0.7,0.5c0.3,0.1,0.5,0.2,0.8,0.2
				c0.2,0,0.3,0,0.5-0.1c0.2,0,0.3-0.1,0.5-0.2c0.2-0.1,0.3-0.2,0.4-0.3c0.1-0.1,0.2-0.3,0.3-0.5l0.6,0.4c-0.1,0.2-0.2,0.4-0.4,0.6
				c-0.2,0.2-0.4,0.3-0.6,0.4c-0.2,0.1-0.5,0.2-0.7,0.3c-0.2,0.1-0.5,0.1-0.7,0.1c-0.4,0-0.8-0.1-1.1-0.3c-0.3-0.2-0.7-0.4-0.9-0.7
				c-0.3-0.3-0.5-0.6-0.6-1C101.5,39.8,101.5,39.4,101.5,39z"/>
			<path class="st0" d="M113,36v6.1h-0.8v-2.8h-3.4v2.8h-0.8V36h0.8v2.6h3.4V36H113z"/>
			<path class="st0" d="M114.9,42.1V36h0.8v6.1H114.9z"/>
			<path class="st0" d="M119.4,36h0.7l2.5,6.1h-0.8l-0.7-1.8h-2.6l-0.7,1.8h-0.8L119.4,36z M120.8,39.7l-1.1-2.8l-1.1,2.8H120.8z"/>
			<path class="st0" d="M127.6,36.7h-2.1v5.4h-0.8v-5.4h-2.1V36h5V36.7z"/>
			<path class="st0" d="M128.9,42.1V36h2.6c0.3,0,0.5,0.1,0.7,0.2c0.2,0.1,0.4,0.3,0.6,0.4c0.2,0.2,0.3,0.4,0.4,0.6
				c0.1,0.2,0.1,0.5,0.1,0.7c0,0.2,0,0.4-0.1,0.6c-0.1,0.2-0.1,0.4-0.3,0.5c-0.1,0.2-0.2,0.3-0.4,0.4c-0.2,0.1-0.3,0.2-0.5,0.2
				l1.5,2.3h-0.9l-1.4-2.2h-1.6v2.2H128.9z M129.7,39.2h1.8c0.2,0,0.3,0,0.4-0.1c0.1-0.1,0.2-0.2,0.3-0.3c0.1-0.1,0.2-0.3,0.2-0.4
				c0.1-0.2,0.1-0.3,0.1-0.5c0-0.2,0-0.3-0.1-0.5c-0.1-0.2-0.1-0.3-0.2-0.4c-0.1-0.1-0.2-0.2-0.4-0.3c-0.1-0.1-0.3-0.1-0.4-0.1h-1.8
				V39.2z"/>
			<path class="st0" d="M134.9,42.1V36h0.8v6.1H134.9z"/>
			<path class="st0" d="M137.2,39c0-0.4,0.1-0.7,0.2-1.1c0.1-0.4,0.3-0.7,0.6-1c0.2-0.3,0.6-0.5,0.9-0.7s0.8-0.3,1.2-0.3
				c0.5,0,1,0.1,1.4,0.4c0.4,0.2,0.7,0.6,0.9,1l-0.6,0.4c-0.1-0.2-0.2-0.4-0.3-0.5c-0.1-0.1-0.3-0.2-0.4-0.3
				c-0.2-0.1-0.3-0.1-0.5-0.2c-0.2,0-0.3-0.1-0.5-0.1c-0.3,0-0.6,0.1-0.9,0.2c-0.3,0.1-0.5,0.3-0.7,0.5c-0.2,0.2-0.3,0.5-0.4,0.8
				c-0.1,0.3-0.1,0.6-0.1,0.9c0,0.3,0.1,0.6,0.2,0.9c0.1,0.3,0.3,0.5,0.4,0.8s0.4,0.4,0.7,0.5c0.3,0.1,0.5,0.2,0.8,0.2
				c0.2,0,0.3,0,0.5-0.1c0.2,0,0.3-0.1,0.5-0.2c0.2-0.1,0.3-0.2,0.4-0.3c0.1-0.1,0.2-0.3,0.3-0.5l0.6,0.4c-0.1,0.2-0.2,0.4-0.4,0.6
				c-0.2,0.2-0.4,0.3-0.6,0.4c-0.2,0.1-0.5,0.2-0.7,0.3c-0.2,0.1-0.5,0.1-0.7,0.1c-0.4,0-0.8-0.1-1.1-0.3c-0.3-0.2-0.7-0.4-0.9-0.7
				c-0.3-0.3-0.5-0.6-0.6-1C137.3,39.8,137.2,39.4,137.2,39z"/>
			<path class="st0" d="M147.3,39c0-0.4,0.1-0.7,0.2-1.1c0.1-0.4,0.3-0.7,0.6-1c0.2-0.3,0.6-0.5,0.9-0.7s0.8-0.3,1.2-0.3
				c0.5,0,1,0.1,1.4,0.4c0.4,0.2,0.7,0.6,0.9,1l-0.6,0.4c-0.1-0.2-0.2-0.4-0.3-0.5c-0.1-0.1-0.3-0.2-0.4-0.3
				c-0.2-0.1-0.3-0.1-0.5-0.2c-0.2,0-0.3-0.1-0.5-0.1c-0.3,0-0.6,0.1-0.9,0.2c-0.3,0.1-0.5,0.3-0.7,0.5c-0.2,0.2-0.3,0.5-0.4,0.8
				c-0.1,0.3-0.1,0.6-0.1,0.9c0,0.3,0.1,0.6,0.2,0.9c0.1,0.3,0.3,0.5,0.4,0.8c0.2,0.2,0.4,0.4,0.7,0.5c0.3,0.1,0.5,0.2,0.8,0.2
				c0.2,0,0.3,0,0.5-0.1c0.2,0,0.3-0.1,0.5-0.2c0.2-0.1,0.3-0.2,0.4-0.3c0.1-0.1,0.2-0.3,0.3-0.5l0.6,0.4c-0.1,0.2-0.2,0.4-0.4,0.6
				c-0.2,0.2-0.4,0.3-0.6,0.4c-0.2,0.1-0.5,0.2-0.7,0.3c-0.2,0.1-0.5,0.1-0.7,0.1c-0.4,0-0.8-0.1-1.1-0.3c-0.3-0.2-0.7-0.4-0.9-0.7
				c-0.3-0.3-0.5-0.6-0.6-1C147.4,39.8,147.3,39.4,147.3,39z"/>
			<path class="st0" d="M155.8,36h0.7l2.5,6.1h-0.8l-0.7-1.8h-2.6l-0.7,1.8h-0.8L155.8,36z M157.2,39.7l-1.1-2.8l-1.1,2.8H157.2z"/>
			<path class="st0" d="M160.1,42.1V36h2.6c0.3,0,0.5,0.1,0.7,0.2c0.2,0.1,0.4,0.3,0.6,0.4c0.2,0.2,0.3,0.4,0.4,0.6s0.1,0.5,0.1,0.7
				c0,0.2,0,0.4-0.1,0.6c-0.1,0.2-0.1,0.4-0.3,0.5c-0.1,0.2-0.2,0.3-0.4,0.4c-0.2,0.1-0.3,0.2-0.5,0.2l1.5,2.3h-0.9l-1.4-2.2h-1.6
				v2.2H160.1z M160.9,39.2h1.8c0.2,0,0.3,0,0.4-0.1c0.1-0.1,0.2-0.2,0.3-0.3c0.1-0.1,0.2-0.3,0.2-0.4c0.1-0.2,0.1-0.3,0.1-0.5
				c0-0.2,0-0.3-0.1-0.5c-0.1-0.2-0.1-0.3-0.2-0.4c-0.1-0.1-0.2-0.2-0.4-0.3c-0.1-0.1-0.3-0.1-0.4-0.1h-1.8V39.2z"/>
			<path class="st0" d="M170.3,41.4v0.7h-4.1V36h4.1v0.7H167v2h2.9v0.6H167v2.1H170.3z"/>
		</g>
	</g>
</g>
</svg>
